<?xml version="1.0" encoding="UTF-8" standalone="no" ?>
<!DOCTYPE svg PUBLIC "-//W3C//DTD SVG 1.1//EN" "http://www.w3.org/Graphics/SVG/1.1/DTD/svg11.dtd">
<svg xmlns="http://www.w3.org/2000/svg" xmlns:xlink="http://www.w3.org/1999/xlink" version="1.1" width="1280" height="1024" viewBox="0 0 1280 1024" xml:space="preserve">
<desc>Created with Fabric.js 5.3.0</desc>
<defs>
</defs>
<g transform="matrix(1 0 0 1 640 512)" id="background-logo"  >
<rect style="stroke: none; stroke-width: 0; stroke-dasharray: none; stroke-linecap: butt; stroke-dashoffset: 0; stroke-linejoin: miter; stroke-miterlimit: 4; fill: rgb(255,255,255); fill-opacity: 0; fill-rule: nonzero; opacity: 1;"  paint-order="stroke"  x="-640" y="-512" rx="0" ry="0" width="1280" height="1024" />
</g>
<g transform="matrix(1.9211538461538462 0 0 1.9211538461538462 859.6809225371971 388.9826295480586)" id="text-logo"  >
<g style=""  paint-order="stroke"   >
		<g transform="matrix(1 0 0 1 0 0)" id="text-logo-path-0"  >
<path style="stroke: none; stroke-width: 0.4680851063829785; stroke-dasharray: none; stroke-linecap: butt; stroke-dashoffset: 0; stroke-linejoin: miter; stroke-miterlimit: 4; fill: rgb(0,0,0); fill-rule: nonzero; opacity: 1;"  paint-order="stroke"  transform=" translate(-47.83, 15.399999999999999)" d="M 2.2 0 L 9.68 0 L 9.68 -30.8 L 2.2 -30.8 Z M 23.19 0 L 48.27 0 L 48.27 -6.16 L 30.67 -6.16 L 30.67 -30.8 L 23.19 -30.8 Z M 77.66 0.44 C 88.18 0.44 93.46 -4.66 93.46 -15.44 C 93.46 -26 88.53 -31.24 77.66 -31.24 C 67.06 -31.24 61.78 -26.31 61.78 -15.44 C 61.78 -4.84 66.75 0.44 77.66 0.44 Z M 69.26 -15.44 C 69.26 -21.91 71.9 -25.08 77.66 -25.08 C 83.16 -25.08 85.98 -22 85.98 -15.44 C 85.98 -8.93 83.42 -5.72 77.66 -5.72 C 72.03 -5.72 69.26 -8.76 69.26 -15.44 Z" stroke-linecap="round" />
</g>
</g>
</g>
<g transform="matrix(1.9211538461538462 0 0 1.9211538461538462 678.6606547233583 384.3133419711355)" id="tagline-83fdfb2a-8044-4ad8-b129-1c6be14b1c43-logo"  >
<g style=""  paint-order="stroke"   >
		<g transform="matrix(1 0 0 1 0 0)" id="tagline-83fdfb2a-8044-4ad8-b129-1c6be14b1c43-logo-path-0"  >
<linearGradient id="SVGID_861329" gradientUnits="userSpaceOnUse" gradientTransform="matrix(1 0 0 1 2.968843309652449 -105.4)"  x1="45.68624999999997" y1="-30.86669999999998" x2="45.68624999999997" y2="144.2833">
<stop offset="0%" style="stop-color:rgb(255,102,0);stop-opacity: 1"/>
<stop offset="100%" style="stop-color:rgb(252,89,0);stop-opacity: 1"/>
<stop offset="100%" style="stop-color:rgb(0,0,0);stop-opacity: 1"/>
</linearGradient>
<path style="stroke: rgb(255,255,255); stroke-width: 0; stroke-dasharray: none; stroke-linecap: butt; stroke-dashoffset: 0; stroke-linejoin: miter; stroke-miterlimit: 4; fill: url(#SVGID_861329); fill-rule: nonzero; opacity: 1;"  paint-order="stroke"  transform=" translate(-51.08442165482622, 52.7)" d="M 86.8 -52.7 L 56.73 -52.7 L 63.7 -89.44 C 70.06 -86.64 76.11 -83.86 82.92 -83.86 C 93.31 -83.86 99.2 -90.21 99.2 -101.06 C 99.2 -102.45 99.2 -104 98.89 -105.4 C 91.76 -101.22 84.47 -99.97 77.19 -99.97 C 64.94 -99.97 56.42 -103.54 44.33 -103.54 C 20.93 -103.54 5.27 -92.07 3.1 -73.63 C 1.71 -62.16 11.63 -50.84 20.46 -50.84 C 19.07 -54.25 18.45 -57.51 18.45 -61.84 C 18.45 -79.98 28.98 -94.08 43.55 -95.02 L 25.11 0 L 46.81 0 L 55.18 -44.17 L 85.25 -44.17 Z" stroke-linecap="round" />
</g>
</g>
</g>
<g transform="matrix(1.9211538461538462 0 0 1.9211538461538462 736.1813743843123 552.5583900480585)" id="tagline-a3fb6b1e-ee01-42d5-ba37-717698204bef-logo"  >
<g style=""  paint-order="stroke"   >
		<g transform="matrix(1 0 0 1 0 0)" id="tagline-a3fb6b1e-ee01-42d5-ba37-717698204bef-logo-path-0"  >
<path style="stroke: rgb(255,255,255); stroke-width: 0; stroke-dasharray: none; stroke-linecap: butt; stroke-dashoffset: 0; stroke-linejoin: miter; stroke-miterlimit: 4; fill: rgb(0,0,0); fill-rule: nonzero; opacity: 1;"  paint-order="stroke"  transform=" translate(-51.08442165482622, 52.7)" d="M 86.8 -52.7 L 56.73 -52.7 L 63.7 -89.44 C 70.06 -86.64 76.11 -83.86 82.92 -83.86 C 93.31 -83.86 99.2 -90.21 99.2 -101.06 C 99.2 -102.45 99.2 -104 98.89 -105.4 C 91.76 -101.22 84.47 -99.97 77.19 -99.97 C 64.94 -99.97 56.42 -103.54 44.33 -103.54 C 20.93 -103.54 5.27 -92.07 3.1 -73.63 C 1.71 -62.16 11.63 -50.84 20.46 -50.84 C 19.07 -54.25 18.45 -57.51 18.45 -61.84 C 18.45 -79.98 28.98 -94.08 43.55 -95.02 L 25.11 0 L 46.81 0 L 55.18 -44.17 L 85.25 -44.17 Z" stroke-linecap="round" />
</g>
</g>
</g>
<g transform="matrix(1.9211538461538462 0 0 1.9211538461538462 930.9839214949025 556.1808844643922)" id="tagline-adfe794d-8ba1-4873-a95e-966a79dc0425-logo"  >
<g style=""  paint-order="stroke"   >
		<g transform="matrix(1 0 0 1 0 0)" id="tagline-adfe794d-8ba1-4873-a95e-966a79dc0425-logo-path-0"  >
<linearGradient id="SVGID_861330" gradientUnits="userSpaceOnUse" gradientTransform="matrix(1 0 0 1 2.1999999999999957 -31.28)"  x1="63.74739433351249" y1="-7.451440412971863" x2="63.74739433351252" y2="42.330560690600464">
<stop offset="0%" style="stop-color:rgb(255,102,0);stop-opacity: 1"/>
<stop offset="100%" style="stop-color:rgb(252,89,0);stop-opacity: 1"/>
<stop offset="100%" style="stop-color:rgb(0,0,0);stop-opacity: 1"/>
</linearGradient>
<path style="stroke: none; stroke-width: 0.4664648451464077; stroke-dasharray: none; stroke-linecap: butt; stroke-dashoffset: 0; stroke-linejoin: miter; stroke-miterlimit: 4; fill: url(#SVGID_861330); fill-rule: nonzero; opacity: 1;"  paint-order="stroke"  transform=" translate(-65.94999999999999, 15.42)" d="M 18.11 0.44 C 28.64 0.44 33.92 -4.67 33.92 -15.46 C 33.92 -26.04 28.99 -31.28 18.11 -31.28 C 7.49 -31.28 2.2 -26.34 2.2 -15.46 C 2.2 -4.85 7.18 0.44 18.11 0.44 Z M 9.69 -15.46 C 9.69 -21.94 12.34 -25.11 18.11 -25.11 C 23.61 -25.11 26.43 -22.03 26.43 -15.46 C 26.43 -8.94 23.88 -5.73 18.11 -5.73 C 12.47 -5.73 9.69 -8.77 9.69 -15.46 Z M 71.24 0 L 78.73 0 L 67.05 -30.84 L 59.12 -30.84 L 47.45 0 L 54.94 0 L 57.1 -5.73 L 69.08 -5.73 Z M 59.43 -11.89 L 63.09 -21.54 L 66.74 -11.89 Z M 106.92 0 L 115.03 0 L 122.21 -17.14 L 122.21 0 L 129.7 0 L 129.7 -30.84 L 120.45 -30.84 L 110.97 -8.19 L 101.5 -30.84 L 92.25 -30.84 L 92.25 0 L 99.74 0 L 99.74 -17.14 Z" stroke-linecap="round" />
</g>
</g>
</g>
</svg>